<svg xmlns="http://www.w3.org/2000/svg" width="60.033" height="60.53" viewBox="0 0 60.033 60.53"><g transform="translate(-13366.741 -953.409)"><path d="M13396.456,984.766l.3.1.3-.1c.123-.04,12.286-4.155,12.286-16.336v-6.047l-1.114.172c-6.189.956-10.743-3.481-10.789-3.525l-.687-.681-.681.683c-.046.044-4.566,4.479-10.788,3.524l-1.116-.173v6.047c0,12.181,12.164,16.3,12.286,16.336Zm-10.35-20.172a17.614,17.614,0,0,1,21.3,0v3.836c0,9.869-8.838,13.705-10.647,14.386-1.752-.679-10.654-4.606-10.654-14.386Zm0,0" fill="#fff"/><path d="M13404.22,969.038l-1.369-1.369-8.029,8.03-3.189-3.189-1.369,1.37,4.559,4.557Zm0,0" fill="#fff"/><path d="M13420.964,971.335h-5.81v9.682h-6.255a19.261,19.261,0,0,0,4.318-12.537V957.568l-1.338.552c-7.953,3.292-14.136-3.591-14.395-3.885l-.729-.826-.726.826c-.259.294-6.445,7.176-14.395,3.885l-1.339-.552V968.48a19.266,19.266,0,0,0,4.318,12.537h-6.255v-9.682h-5.811a5.814,5.814,0,0,0-5.809,5.809v30.985a5.815,5.815,0,0,0,5.809,5.81h48.414a5.817,5.817,0,0,0,5.811-5.81V977.144a5.816,5.816,0,0,0-5.811-5.809Zm-3.873,1.936h3.873a3.873,3.873,0,1,1,0,7.746h-3.873Zm-34.857-12.884c6.949,2.076,12.581-2.333,14.523-4.146,1.942,1.814,7.573,6.226,14.524,4.145v8.093c0,13.637-12.546,17.75-14.521,18.311-1.877-.554-14.527-4.8-14.527-18.31Zm-9.684,12.884h3.874v7.746h-3.874a3.873,3.873,0,1,1,0-7.746Zm48.414,38.731h-48.414a3.878,3.878,0,0,1-3.873-3.873V981.463a5.78,5.78,0,0,0,3.873,1.491h13.868a25.7,25.7,0,0,0,10.1,5.781l.234.059.235-.059a25.7,25.7,0,0,0,10.1-5.781h13.868a5.778,5.778,0,0,0,3.873-1.491v26.666a3.877,3.877,0,0,1-3.873,3.873Zm0,0" fill="#fff"/><rect width="1.937" height="1.937" transform="translate(13376.424 1008.129)" fill="#fff"/><rect width="1.937" height="1.937" transform="translate(13380.297 1008.129)" fill="#fff"/><rect width="1.937" height="1.937" transform="translate(13384.17 1008.129)" fill="#fff"/><rect width="1.937" height="1.937" transform="translate(13388.043 1008.129)" fill="#fff"/><rect width="1.937" height="1.937" transform="translate(13372.551 1008.129)" fill="#fff"/><path d="M13419.028,1002.319h-9.684a3.874,3.874,0,0,0,0,7.747h9.684a3.874,3.874,0,0,0,0-7.747Zm0,5.81h-9.684a1.937,1.937,0,1,1,0-3.873h9.684a1.937,1.937,0,0,1,0,3.873Zm0,0" fill="#fff"/><path d="M13419.028,992.637h-9.684a3.873,3.873,0,1,0,0,7.746h9.684a3.873,3.873,0,1,0,0-7.746Zm0,5.809h-9.684a1.936,1.936,0,1,1,0-3.873h9.684a1.936,1.936,0,0,1,0,3.873Zm0,0" fill="#fff"/><rect width="17.429" height="1.937" transform="translate(13405.472 988.764)" fill="#fff"/><rect width="1.937" height="1.937" transform="translate(13420.964 984.89)" fill="#fff"/><rect width="1.937" height="1.937" transform="translate(13417.091 984.89)" fill="#fff"/><rect width="1.937" height="1.937" transform="translate(13413.218 984.89)" fill="#fff"/><rect width="1.937" height="1.937" transform="translate(13409.345 984.89)" fill="#fff"/><rect width="1.937" height="1.937" transform="translate(13405.472 984.89)" fill="#fff"/><path d="M13391.218,999.3a10.538,10.538,0,0,0,.7-3.759,10.679,10.679,0,1,0-1.711,5.77l3.117,4.881h8.276v-1.936h-7.216Zm-12.485-.854a11.523,11.523,0,0,1,0-5.809h5.062a11.421,11.421,0,0,1,0,5.809Zm4.411,1.937a2.186,2.186,0,1,1-3.765,0Zm-10.594-4.842a8.678,8.678,0,0,1,.508-2.9h3.685a13.408,13.408,0,0,0,0,5.809h-3.685a8.679,8.679,0,0,1-.508-2.9Zm6.829-4.841a15.884,15.884,0,0,1,1.876-3.3,15.713,15.713,0,0,1,1.889,3.3Zm6.407,1.937h3.685a8.56,8.56,0,0,1,0,5.809h-3.685a13.329,13.329,0,0,0,0-5.809Zm2.719-1.937h-3.273a17.061,17.061,0,0,0-1.81-3.591,8.73,8.73,0,0,1,5.083,3.591Zm-9.417-3.586a17.13,17.13,0,0,0-1.795,3.586h-3.269a8.736,8.736,0,0,1,5.063-3.586Zm-5.063,13.269h3.269a17.08,17.08,0,0,0,1.795,3.586,8.741,8.741,0,0,1-5.063-3.586Zm9.4,3.591a17.04,17.04,0,0,0,1.81-3.591h3.273a8.731,8.731,0,0,1-5.083,3.591Zm0,0" fill="#fff"/><rect width="1.937" height="1.937" transform="translate(13395.789 1000.383)" fill="#fff"/><rect width="1.937" height="1.937" transform="translate(13399.662 1000.383)" fill="#fff"/></g></svg>