<svg xmlns="http://www.w3.org/2000/svg" width="60.033" height="60.033" viewBox="0 0 60.033 60.033"><g transform="translate(-13884.885 -952.8)"><path d="M13924.309,961.839a9.414,9.414,0,0,0,0,2.623l2.3.942a8.184,8.184,0,0,0,.735,1.784l-.956,2.287a10.454,10.454,0,0,0,1.857,1.857l2.287-.956a8.127,8.127,0,0,0,1.784.736l.941,2.3a9.4,9.4,0,0,0,2.623,0l.942-2.3a8.194,8.194,0,0,0,1.785-.736l2.285.956a10.454,10.454,0,0,0,1.857-1.857l-.956-2.287a8.167,8.167,0,0,0,.736-1.784l2.3-.942a9.414,9.414,0,0,0,0-2.623l-2.3-.942a8.2,8.2,0,0,0-.736-1.785l.956-2.286a10.423,10.423,0,0,0-1.857-1.857l-2.285.956a8.2,8.2,0,0,0-1.785-.736l-.942-2.3a9.39,9.39,0,0,0-2.623,0l-.941,2.3a8.13,8.13,0,0,0-1.784.736l-2.286-.956a10.429,10.429,0,0,0-1.858,1.857l.956,2.286a8.192,8.192,0,0,0-.735,1.785Zm10.26-2.829a4.141,4.141,0,1,1-4.142,4.14A4.141,4.141,0,0,1,13934.568,959.01Z" fill="#fff"/><path d="M13902.595,973.6l-.758,3.247a16.416,16.416,0,0,0-3.1.831l-2.27-2.423a19.541,19.541,0,0,0-3.383,1.961l.959,3.155a16.675,16.675,0,0,0-2.283,2.283l-3.156-.959a19.61,19.61,0,0,0-1.96,3.383l2.422,2.27a16.484,16.484,0,0,0-.829,3.1l-3.248.758c-.064.644-.1,1.3-.1,1.956s.035,1.312.1,1.956l3.248.758a16.485,16.485,0,0,0,.829,3.105l-2.423,2.269a19.578,19.578,0,0,0,1.961,3.383l3.155-.959a16.679,16.679,0,0,0,2.284,2.283l-.96,3.156a19.573,19.573,0,0,0,3.383,1.96l2.271-2.422a16.41,16.41,0,0,0,3.1.83l.758,3.248c.645.064,1.3.1,1.956.1s1.313-.035,1.956-.1l.758-3.248a16.361,16.361,0,0,0,3.105-.83l2.269,2.423a19.627,19.627,0,0,0,3.385-1.961l-.96-3.155a16.621,16.621,0,0,0,2.282-2.284l3.156.96a19.679,19.679,0,0,0,1.961-3.383l-2.423-2.27a16.415,16.415,0,0,0,.831-3.105l3.247-.758c.063-.644.1-1.3.1-1.956s-.035-1.312-.1-1.956l-3.247-.758a16.414,16.414,0,0,0-.831-3.1l2.423-2.269a19.624,19.624,0,0,0-1.961-3.384l-3.155.96a16.61,16.61,0,0,0-2.282-2.283l.959-3.156a19.649,19.649,0,0,0-3.384-1.961l-2.27,2.423a16.446,16.446,0,0,0-3.105-.831l-.758-3.247c-.644-.064-1.3-.1-1.956-.1s-1.312.035-1.956.1Zm13.342,19.567a11.385,11.385,0,1,1-11.386-11.386A11.385,11.385,0,0,1,13915.937,993.167Z" fill="#fff"/><path d="M13919.294,957.234l2.585-1.724,1.148,1.722-2.584,1.724Z" fill="#fff"/><path d="M13914.991,960.111l2.584-1.723,1.148,1.722-2.584,1.724Z" fill="#fff"/><path d="M13910.687,962.983l2.585-1.723,1.147,1.722-2.583,1.724Z" fill="#fff"/><path d="M13902.077,968.727l2.583-1.723,1.148,1.722-2.583,1.723Z" fill="#fff"/><path d="M13897.772,971.6l2.584-1.723,1.148,1.722-2.584,1.724Z" fill="#fff"/><path d="M13906.381,965.855l2.584-1.723,1.149,1.722-2.584,1.723Z" fill="#fff"/><path d="M13929.691,991.038l1.6-2.661,1.774,1.066-1.6,2.661Z" fill="#fff"/><path d="M13932.357,986.6l1.6-2.661,1.774,1.066-1.6,2.661Z" fill="#fff"/><path d="M13924.361,999.914l1.6-2.661,1.774,1.066-1.6,2.661Z" fill="#fff"/><path d="M13927.025,995.476l1.6-2.662,1.774,1.066-1.6,2.662Z" fill="#fff"/><path d="M13937.687,977.723l1.6-2.661,1.773,1.066-1.6,2.661Z" fill="#fff"/><path d="M13935.021,982.162l1.6-2.661,1.773,1.066-1.6,2.661Z" fill="#fff"/></g></svg>