<svg xmlns="http://www.w3.org/2000/svg" width="80.379" height="80.378" viewBox="0 0 80.379 80.378"><g transform="translate(-13951.32 -570.831)"><path d="M13995.252,577.055l-5.752,5.751-1.732-1.732-1.894,1.894,2.679,2.68a1.342,1.342,0,0,0,1.9,0l6.7-6.7Z" fill="#2d72d7"/><path d="M13978.783,613.307a1.339,1.339,0,0,0,.947-.393l6.7-6.7-1.895-1.894-5.751,5.751-1.732-1.732-1.894,1.894,2.679,2.679a1.337,1.337,0,0,0,.947.393Z" fill="#2d72d7"/><path d="M14020.982,629.775a10.677,10.677,0,0,0-7.768,3.355l-20.9-15.315a13.164,13.164,0,0,0,1.436-10.123l17.715-6.492a10.865,10.865,0,1,0-.923-2.515l-17.717,6.493a13.457,13.457,0,0,0-6.233-6.214l2.544-6.972a10.74,10.74,0,1,0-2.517-.918l-2.545,6.974a13.132,13.132,0,0,0-9.3,1.02l-5.9-9.277a10.877,10.877,0,1,0-2.263,1.433l5.9,9.284a13.352,13.352,0,0,0-.455,20.649l-5.027,7.182a10.816,10.816,0,1,0,2.189,1.545l5.029-7.185a13.329,13.329,0,0,0,16.479-2.727l20.893,15.312a10.712,10.712,0,1,0,9.359-5.509Zm0-41.529a8.038,8.038,0,1,1-8.038,8.038A8.046,8.046,0,0,1,14020.982,588.246Zm-37.511-6.7a8.038,8.038,0,1,1,8.038,8.038A8.046,8.046,0,0,1,13983.472,581.548Zm-29.472,0a8.038,8.038,0,1,1,8.038,8.038A8.046,8.046,0,0,1,13954,581.548Zm16.075,56.265a8.038,8.038,0,1,1-8.037-8.038A8.046,8.046,0,0,1,13970.075,637.813Zm10.718-16.076a10.717,10.717,0,1,1,10.717-10.717A10.73,10.73,0,0,1,13980.793,621.737Zm40.189,26.793a8.038,8.038,0,1,1,8.037-8.038A8.046,8.046,0,0,1,14020.982,648.53Z" fill="#2d72d7"/><path d="M13959.343,582.806l-1.731-1.732-1.895,1.894,2.68,2.68a1.339,1.339,0,0,0,1.894,0l6.7-6.7-1.9-1.894Z" fill="#2d72d7"/></g></svg>