<svg xmlns="http://www.w3.org/2000/svg" width="80.38" height="80.552" viewBox="0 0 80.38 80.552"><g transform="translate(-13300.382 -581.461)"><path d="M13302.078,612.722a1.177,1.177,0,0,0,1.631-.336,6.04,6.04,0,0,1,11.079,2.957,6.429,6.429,0,0,0,1.908,4.16,1.419,1.419,0,0,0,2.006,0l8-7.995a1.344,1.344,0,0,1,1.8-.093c.033.035.062.072.1.106l7.262,7.262a3.95,3.95,0,0,1-1.9.629,8.416,8.416,0,0,0-3.753,1.136,1.178,1.178,0,0,0,.6,2.194,1.167,1.167,0,0,0,.595-.162,6.071,6.071,0,0,1,2.7-.816,6.43,6.43,0,0,0,4.159-1.908,1.554,1.554,0,0,0-.315-2.341l-7.674-7.674a1.32,1.32,0,0,1-.007-1.886l7.252-7.252a3.936,3.936,0,0,1,.6,1.845,8.347,8.347,0,0,0,2.777,5.76,8.453,8.453,0,0,0,11.3-.086,8.395,8.395,0,0,0-5.183-14.548,4.006,4.006,0,0,1-1.862-.6l7.251-7.25a1.343,1.343,0,0,1,1.9,0l8.165,8.165a1.178,1.178,0,0,0,1.666,0l.331-.33a6.48,6.48,0,0,0,1.908-4.173,6.04,6.04,0,1,1,6.385,6.4,6.43,6.43,0,0,0-4.16,1.908l-.33.33a1.178,1.178,0,0,0,0,1.666l8.165,8.165a1.344,1.344,0,0,1,0,1.9l-1.791,1.792a1.178,1.178,0,1,0,1.666,1.665l1.792-1.791a3.7,3.7,0,0,0,0-5.232l-7.293-7.292a3.976,3.976,0,0,1,2.088-.759,8.355,8.355,0,0,0,5.761-2.779,8.452,8.452,0,0,0-.087-11.3,8.4,8.4,0,0,0-14.548,5.183,4.036,4.036,0,0,1-.761,2.106l-7.291-7.292a3.705,3.705,0,0,0-5.232,0l-8.039,8.039a1.359,1.359,0,0,0,0,1.92,6.474,6.474,0,0,0,4.174,1.909,6.041,6.041,0,1,1-6.4,6.384,6.431,6.431,0,0,0-1.908-4.159,1.36,1.36,0,0,0-1.92,0l-8.039,8.038a3.677,3.677,0,0,1-3.559,3.552l-7.262,7.262a3.956,3.956,0,0,1-.63-1.9,8.35,8.35,0,0,0-2.778-5.76,8.4,8.4,0,0,0-12.62,1.644,1.178,1.178,0,0,0,.337,1.632Z" fill="#2d72d7"/><path d="M13372.738,619.413a4.014,4.014,0,0,1-1.915-.631l1.623-1.624a1.178,1.178,0,0,0-1.666-1.666l-2.528,2.528a1.222,1.222,0,0,0,.171,1.837,6.47,6.47,0,0,0,4.172,1.908,6.04,6.04,0,1,1-6.4,6.385,6.431,6.431,0,0,0-1.908-4.16,1.221,1.221,0,0,0-1.836-.17l-8.165,8.166a1.344,1.344,0,0,1-1.8.092c-.032-.035-.062-.072-.1-.1l-7.991-7.993a1.45,1.45,0,0,0-2.017.011,6.472,6.472,0,0,0-1.909,4.172,6.037,6.037,0,1,1-11.886-1.817,1.178,1.178,0,0,0-2.29-.556,8.39,8.39,0,0,0,7.985,10.4l.168,0a8.4,8.4,0,0,0,8.375-7.883,4.016,4.016,0,0,1,.631-1.915l7.261,7.261c.037.037.075.072.113.107a1.345,1.345,0,0,1-.106,1.779l-8.166,8.165a1.308,1.308,0,0,0,.331,2,6.468,6.468,0,0,0,4.173,1.908,6.04,6.04,0,1,1-6.4,6.385,6.428,6.428,0,0,0-1.907-4.159,1.311,1.311,0,0,0-2-.331l-8.166,8.166a1.344,1.344,0,0,1-1.9,0l-8.165-8.166a1.225,1.225,0,0,0-1.836.171,6.461,6.461,0,0,0-1.908,4.172,6.041,6.041,0,1,1-6.385-6.4,6.427,6.427,0,0,0,4.158-1.908,1.22,1.22,0,0,0,.171-1.836l-8.165-8.165a1.344,1.344,0,0,1,0-1.9l8-7.995a1.419,1.419,0,0,0,0-2.006,6.464,6.464,0,0,0-4.173-1.909,6.04,6.04,0,0,1-5.5-4.585,1.178,1.178,0,1,0-2.288.561,8.4,8.4,0,0,0,7.642,6.376,4.019,4.019,0,0,1,1.914.632l-7.26,7.261a3.7,3.7,0,0,0,0,5.231l7.261,7.262a3.945,3.945,0,0,1-1.9.629,8.354,8.354,0,0,0-5.76,2.779,8.451,8.451,0,0,0,.086,11.3,8.394,8.394,0,0,0,14.548-5.183,4.019,4.019,0,0,1,.633-1.915l7.26,7.261a3.7,3.7,0,0,0,5.231,0l7.292-7.292a3.973,3.973,0,0,1,.76,2.087,8.4,8.4,0,1,0,8.894-8.873,4.052,4.052,0,0,1-2.106-.761l7.292-7.292a3.687,3.687,0,0,1,3.56-3.552l7.261-7.262a3.945,3.945,0,0,1,.63,1.9,8.351,8.351,0,0,0,2.779,5.76,8.45,8.45,0,0,0,11.3-.086,8.4,8.4,0,0,0-5.182-14.548Z" fill="#2d72d7"/></g></svg>